<svg xmlns="http://www.w3.org/2000/svg" viewBox="0 0 480 300"><rect width="480" height="300" fill="#94683f"/><rect x="-200" y="2" width="156" height="26" rx="2" fill="#bf8d5e" opacity="0.70"/><rect x="-40" y="2" width="156" height="26" rx="2" fill="#bf8d5e" opacity="0.82"/><rect x="120" y="2" width="156" height="26" rx="2" fill="#bf8d5e" opacity="0.34"/><rect x="280" y="2" width="156" height="26" rx="2" fill="#bf8d5e" opacity="0.46"/><rect x="440" y="2" width="156" height="26" rx="2" fill="#bf8d5e" opacity="0.58"/><rect x="-100" y="32" width="156" height="26" rx="2" fill="#bf8d5e" opacity="0.29"/><rect x="60" y="32" width="156" height="26" rx="2" fill="#bf8d5e" opacity="0.41"/><rect x="220" y="32" width="156" height="26" rx="2" fill="#bf8d5e" opacity="0.53"/><rect x="380" y="32" width="156" height="26" rx="2" fill="#bf8d5e" opacity="0.66"/><rect x="0" y="62" width="156" height="26" rx="2" fill="#bf8d5e" opacity="0.49"/><rect x="160" y="62" width="156" height="26" rx="2" fill="#bf8d5e" opacity="0.61"/><rect x="320" y="62" width="156" height="26" rx="2" fill="#bf8d5e" opacity="0.73"/><rect x="100" y="92" width="156" height="26" rx="2" fill="#bf8d5e" opacity="0.69"/><rect x="260" y="92" width="156" height="26" rx="2" fill="#bf8d5e" opacity="0.80"/><rect x="420" y="92" width="156" height="26" rx="2" fill="#bf8d5e" opacity="0.33"/><rect x="-200" y="122" width="156" height="26" rx="2" fill="#bf8d5e" opacity="0.58"/><rect x="-40" y="122" width="156" height="26" rx="2" fill="#bf8d5e" opacity="0.70"/><rect x="120" y="122" width="156" height="26" rx="2" fill="#bf8d5e" opacity="0.82"/><rect x="280" y="122" width="156" height="26" rx="2" fill="#bf8d5e" opacity="0.34"/><rect x="440" y="122" width="156" height="26" rx="2" fill="#bf8d5e" opacity="0.46"/><rect x="-100" y="152" width="156" height="26" rx="2" fill="#bf8d5e" opacity="0.78"/><rect x="60" y="152" width="156" height="26" rx="2" fill="#bf8d5e" opacity="0.29"/><rect x="220" y="152" width="156" height="26" rx="2" fill="#bf8d5e" opacity="0.41"/><rect x="380" y="152" width="156" height="26" rx="2" fill="#bf8d5e" opacity="0.53"/><rect x="0" y="182" width="156" height="26" rx="2" fill="#bf8d5e" opacity="0.37"/><rect x="160" y="182" width="156" height="26" rx="2" fill="#bf8d5e" opacity="0.49"/><rect x="320" y="182" width="156" height="26" rx="2" fill="#bf8d5e" opacity="0.61"/><rect x="100" y="212" width="156" height="26" rx="2" fill="#bf8d5e" opacity="0.56"/><rect x="260" y="212" width="156" height="26" rx="2" fill="#bf8d5e" opacity="0.69"/><rect x="420" y="212" width="156" height="26" rx="2" fill="#bf8d5e" opacity="0.80"/><rect x="-200" y="242" width="156" height="26" rx="2" fill="#bf8d5e" opacity="0.46"/><rect x="-40" y="242" width="156" height="26" rx="2" fill="#bf8d5e" opacity="0.58"/><rect x="120" y="242" width="156" height="26" rx="2" fill="#bf8d5e" opacity="0.70"/><rect x="280" y="242" width="156" height="26" rx="2" fill="#bf8d5e" opacity="0.82"/><rect x="440" y="242" width="156" height="26" rx="2" fill="#bf8d5e" opacity="0.34"/><rect x="-100" y="272" width="156" height="26" rx="2" fill="#bf8d5e" opacity="0.66"/><rect x="60" y="272" width="156" height="26" rx="2" fill="#bf8d5e" opacity="0.78"/><rect x="220" y="272" width="156" height="26" rx="2" fill="#bf8d5e" opacity="0.29"/><rect x="380" y="272" width="156" height="26" rx="2" fill="#bf8d5e" opacity="0.41"/><rect width="480" height="300" fill="url(#g)"/><defs><linearGradient id="g" x1="0" y1="0" x2="0" y2="1"><stop offset="0" stop-color="#000" stop-opacity="0"/><stop offset="1" stop-color="#1b2a41" stop-opacity="0.5"/></linearGradient></defs><text x="20" y="276" font-family="Arial" font-size="20" font-weight="bold" fill="#f7f5f2">Project 6 — LVP Installation</text></svg>